<?xml version="1.0" standalone="no"?>
<!DOCTYPE svg PUBLIC "-//W3C//DTD SVG 20010904//EN"
 "http://www.w3.org/TR/2001/REC-SVG-20010904/DTD/svg10.dtd">
<svg version="1.0" xmlns="http://www.w3.org/2000/svg"
 width="586.000000pt" height="426.000000pt" viewBox="0 0 586.000000 426.000000"
 preserveAspectRatio="xMidYMid meet">

<g transform="translate(0.000000,426.000000) scale(0.100000,-0.100000)"
fill="#000000" stroke="none">
<path d="M4732 4119 c-288 -142 -283 -138 -200 -180 47 -24 54 -39 34 -76 -12
-24 -136 -186 -156 -203 -6 -6 -104 -121 -135 -159 -11 -14 -45 -52 -75 -86
-30 -33 -84 -94 -120 -135 -123 -142 -263 -280 -282 -280 -24 0 -62 22 -283
160 -253 159 -341 210 -363 210 -23 0 -85 -83 -207 -275 -166 -262 -401 -621
-422 -642 -20 -22 -11 -26 -179 102 -311 239 -383 291 -416 299 -47 11 -77
-22 -323 -350 -44 -58 -84 -113 -90 -122 -5 -9 -14 -21 -20 -28 -5 -6 -28 -35
-50 -64 -186 -243 -311 -390 -330 -390 -17 0 -36 27 -126 180 -101 171 -119
193 -160 193 -21 0 -37 -6 -43 -17 -6 -10 -27 -39 -46 -65 -19 -25 -39 -54
-45 -63 -5 -9 -44 -68 -86 -130 -72 -108 -288 -445 -337 -525 -12 -21 -40 -65
-62 -98 -96 -147 -103 -176 -45 -187 31 -6 57 12 98 66 100 133 251 339 382
522 39 53 90 121 114 151 52 66 39 74 193 -119 73 -91 116 -138 129 -138 25 0
66 42 359 370 82 93 172 192 180 200 3 3 35 39 70 80 149 172 253 280 271 280
25 0 52 -16 289 -172 113 -74 224 -145 248 -158 l43 -24 32 34 c36 39 142 175
201 259 21 30 43 59 48 65 17 19 119 159 169 231 128 185 163 232 186 257 l25
26 105 -54 c57 -30 202 -104 321 -165 l216 -111 96 99 c112 114 250 263 489
528 95 105 213 234 263 288 l90 97 51 -37 c29 -21 58 -43 65 -50 38 -36 44
-15 77 267 9 74 20 162 26 195 5 32 5 63 1 67 -4 4 -126 -51 -270 -123z"/>
<path d="M4555 3331 c-23 -5 -31 -13 -37 -41 -5 -19 -6 -433 -2 -920 l6 -885
32 -40 c56 -70 66 -92 66 -143 0 -40 -7 -60 -36 -105 -40 -59 -86 -92 -168
-118 -38 -12 -52 -23 -57 -40 -4 -13 -7 -219 -8 -457 l-1 -433 -62 3 -63 3 -8
455 c-8 452 -4 600 14 600 6 0 28 -10 51 -21 59 -30 127 -30 164 1 55 46 79
82 79 121 0 46 -35 78 -236 221 -79 55 -164 116 -189 134 -25 18 -65 48 -90
66 -25 18 -47 35 -50 38 -3 3 -36 28 -75 55 -38 27 -72 52 -75 55 -3 3 -88 70
-190 148 -196 150 -211 162 -326 259 -103 86 -158 123 -187 123 -24 0 -112
-58 -237 -154 -36 -28 -67 -53 -70 -56 -3 -3 -23 -18 -45 -35 -22 -16 -42 -32
-45 -35 -5 -6 -256 -202 -384 -299 -39 -29 -83 -63 -97 -75 -26 -21 -51 -40
-124 -94 -237 -175 -364 -281 -371 -307 -12 -48 53 -152 112 -180 33 -16 38
-15 84 1 27 10 53 14 57 10 5 -4 8 -236 8 -514 l0 -507 -37 -3 -38 -3 0 433
c0 238 -3 443 -6 455 -4 15 -17 23 -42 28 -87 16 -142 59 -205 157 -20 32 -32
98 -23 131 8 35 86 113 200 202 154 120 258 214 250 227 -8 12 -571 10 -595
-2 -19 -10 -19 -30 -19 -825 l0 -815 -80 0 -80 0 0 598 0 599 -107 6 c-58 4
-219 7 -358 7 l-252 0 -6 -337 c-4 -186 -7 -460 -7 -609 0 -239 -2 -273 -16
-278 -9 -3 -52 -6 -97 -7 -45 0 -107 -6 -137 -12 l-55 -12 -3 -52 -3 -53 2726
0 2726 0 -3 63 -3 62 -215 5 c-118 3 -221 9 -227 13 -10 6 -13 107 -13 446 0
241 -3 958 -7 1594 l-6 1157 -336 -1 c-185 -1 -349 -4 -366 -8z m-1343 -1323
c52 -40 160 -125 239 -188 79 -63 160 -127 179 -142 19 -15 76 -59 125 -98 50
-39 115 -90 145 -113 30 -22 64 -50 75 -60 11 -10 32 -26 47 -35 15 -9 30 -23
33 -31 8 -20 29 -1147 21 -1166 -4 -12 -30 -15 -144 -15 -109 0 -154 -4 -213
-21 -241 -67 -280 -72 -524 -73 -257 -1 -267 0 -630 75 -66 13 -135 18 -257
19 l-168 0 0 584 0 584 106 84 c59 46 129 101 158 124 95 75 202 159 306 239
57 44 120 94 139 111 35 30 131 104 175 134 11 8 34 25 49 37 16 13 32 23 36
23 4 0 51 -33 103 -72z"/>
<path d="M3241 1487 c-18 -6 -58 -33 -88 -61 -38 -35 -59 -47 -67 -40 -65 49
-114 74 -146 74 -107 0 -101 -149 10 -269 27 -30 47 -58 44 -62 -3 -5 -22 -16
-42 -26 -68 -31 -206 -137 -298 -228 -124 -124 -158 -191 -162 -326 -8 -226
93 -349 340 -414 329 -86 723 -32 870 118 62 64 108 182 108 278 0 60 -32 150
-77 219 -74 112 -242 264 -354 320 -56 28 -79 49 -79 70 0 10 16 53 37 96 47
103 58 209 24 243 -23 23 -64 26 -120 8z m9 -206 c0 -52 -27 -128 -52 -149
-25 -20 -48 -4 -48 34 0 52 63 164 92 164 4 0 8 -22 8 -49z m-159 -22 c38 -43
35 -119 -3 -127 -33 -7 -77 115 -51 141 12 13 36 7 54 -14z m116 -349 c7 -20
26 -36 59 -52 34 -16 50 -30 52 -45 4 -26 -12 -29 -66 -14 l-32 10 0 -78 0
-78 48 -22 c133 -63 132 -219 -2 -282 -23 -10 -50 -33 -59 -49 -22 -37 -42
-38 -59 -4 -8 16 -43 44 -88 69 -60 34 -76 48 -78 69 -3 21 1 26 20 26 13 0
47 -11 76 -25 30 -14 56 -25 58 -25 2 0 4 38 4 84 l0 85 -55 38 c-67 47 -90
86 -81 135 9 48 37 82 91 108 25 12 47 31 51 43 16 53 42 56 61 7z"/>
<path d="M3112 794 c-52 -36 -44 -114 12 -114 18 0 25 7 30 31 9 46 8 63 -7
82 -11 16 -14 16 -35 1z"/>
<path d="M3220 498 c0 -98 10 -112 50 -73 39 37 41 82 4 119 -44 44 -54 35
-54 -46z"/>
<path d="M3440 2483 l1 -208 126 -100 c69 -55 131 -104 137 -110 48 -42 450
-343 514 -384 29 -18 56 -30 60 -26 7 7 21 1001 14 1023 -3 9 -98 12 -428 12
l-424 0 0 -207z"/>
<path d="M2176 2142 c-8 -7 -7 -270 0 -299 6 -21 6 -21 44 5 50 36 101 75 190
147 115 92 146 123 135 133 -11 10 -360 24 -369 14z"/>
</g>
</svg>
